PathFileType	4	(X/Y/Z)	C:/Users/beibeiliu/ov580/test_trc/User1\sequence.11_training_dense_left.trc
DataRate	CameraRate	NumFrames	NumMarkers	Units	OrigDataRate	OrigDataStartFrame	OrigNumFrames
120	120	8	19	mm	120	1	341
Frame#	Time	ThumbCMC			ThumbMCP			ThumbIP			ThumbTip			IndexMCP			IndexPIP			IndexTip			MiddleMCP			MiddlePIP			MiddleTip			RingMCP			RingPIP			RingTip			PinkyMCP			PinkyPIP			PinkyTip			BackHand1			BackHand2			BackHand3	
		X0	Y0	Z0	X1	Y1	Z1	X2	Y2	Z2	X3	Y3	Z3	X4	Y4	Z4	X5	Y5	Z5	X6	Y6	Z6	X7	Y7	Z7	X8	Y8	Z8	X9	Y9	Z9	X10	Y10	Z10	X11	Y11	Z11	X12	Y12	Z12	X13	Y13	Z13	X14	Y14	Z14	X15	Y15	Z15	X16	Y16	Z16	X17	Y17	Z17	X18	Y18	Z18	
0	0	-169.924	78.2945	54.8688	-146.661	64.2691	48.6476	-121.485	59.4131	37.955	-99.8811	54.6895	31.8386	-179.56	58.9383	-30.2314	-174.741	54.2405	-53.5146	-173.695	53.9956	-83.4496	-206.093	58.3883	-42.6427	-206.858	53.2235	-68.8693	-210.298	49.0438	-97.5004	-228.605	54.9018	-38.0805	-231.098	52.5471	-59.7501	-234.8	48.0986	-84.354	-258.772	46.6354	-15.4475	-265.706	43.0232	-28.987	-272.92	46.6526	-53.2709	-231.498	76.9334	10.4422	-237.421	93.4429	44.9033	-200.535	88.485	28.0357	
1	0.00833333	-170.767	76.5324	52.724	-145.365	64.6098	47.5567	-125.112	56.3529	35.487	-100.354	53.2895	32.2542	-180.413	59.1994	-31.6658	-176.677	55.4065	-57.9142	-176.173	53.6205	-84.8161	-205.982	58.2989	-44.9425	-206.496	53.8817	-66.2025	-211.218	49.778	-97.3263	-233.788	56.0782	-35.8553	-231.068	52.5094	-59.9459	-235.57	49.4932	-89.1136	-255.733	47.6365	-11.882	-268.871	43.1101	-32.816	-275.74	48.238	-50.0816	-234.401	77.0536	14.4996	-236.097	93.6955	42.5328	-199.579	87.1073	26.9961	
2	0.0166667	-171.422	76.7142	54.8208	-148.072	64.4032	49.4492	-120.405	56.7731	35.1218	-104.454	52.9464	34.3318	-174.889	59.066	-34.4057	-176.728	55.3729	-55.5537	-172.233	54.1442	-80.2464	-208.263	59.6887	-41.6051	-206.669	53.8776	-67.2462	-207.833	50.4727	-95.4849	-228.56	57.1626	-33.741	-231.563	52.5165	-64.3458	-236.308	49.3502	-88.1997	-257.602	48.6516	-12.8797	-268.148	43.3994	-30.4414	-274.663	46.332	-50.8956	-234.954	77.7775	13.842	-235.456	92.1874	43.0971	-201.501	87.841	29.8015	
3	0.025	-166.993	76.6768	50.8023	-147.022	63.3999	46.502	-122.726	56.7288	35.9746	-104.511	53.8091	36.382	-177.385	59.3776	-34.1588	-171.916	56.9017	-58.6427	-177.27	53.924	-79.958	-205.587	60.4292	-40.4859	-206.72	54.4531	-69.6197	-210.295	50.8808	-96.5036	-227.829	57.3698	-36.729	-231.847	53.2339	-63.3085	-233.108	49.7416	-83.7106	-252.485	49.0856	-13.0215	-263.463	45.6282	-32.2108	-274.183	49.9903	-50.8699	-232.554	76.5622	11.2459	-238.823	92.6916	41.1526	-199.336	87.9804	26.7089	
4	0.0333333	-171.487	76.7553	53.6849	-144.489	63.468	45.8183	-120.784	58.081	38.7401	-101.014	54.7454	36.9724	-174.226	60.9883	-30.5682	-173.237	57.4144	-53.5622	-171.939	55.8661	-78.6433	-202.701	61.1265	-46.1472	-203.285	54.4444	-71.8397	-206.985	51.947	-94.9349	-231.787	56.8668	-35.6871	-229.843	54.0429	-64.7564	-234.533	49.7561	-88.1626	-257.63	48.9952	-13.8453	-261.063	45.8859	-31.5862	-273.372	50.7311	-51.6778	-232.645	78.7987	11.2914	-232.275	93.6602	40.2123	-199.354	87.3492	26.9989	
5	0.0416667	-169.862	75.4321	50.83	-145.884	63.4594	46.7509	-120.91	56.5274	35.1142	-100.053	54.5775	36.9476	-173.202	60.9808	-28.6123	-175.193	56.7358	-57.2053	-172.034	55.5895	-78.127	-206.364	60.1655	-44.2691	-203.57	55.5114	-68.4191	-209.556	51.9293	-95.4591	-232.043	57.2289	-35.3047	-232.644	54.0341	-63.8085	-235.557	50.4097	-84.4928	-255.11	50.6905	-13.929	-260.588	46.8129	-29.5651	-273.21	48.6875	-51.2427	-229.468	79.7155	15.6222	-234.779	93.289	42.8565	-196.107	87.8251	29.4508	
6	0.05	-167.28	76.8832	52.1651	-143.146	64.4446	47.7514	-123.725	56.2137	39.395	-102.338	53.8862	36.5472	-176.413	60.6093	-33.4931	-171.647	57.0336	-52.2812	-173.966	56.0917	-78.0502	-206.964	60.7566	-44.3026	-203.123	56.0894	-65.6154	-207.353	53.8894	-96.6178	-226.942	58.5957	-32.8616	-230.912	54.6684	-60.3952	-231.614	52.7152	-87.6723	-257.125	51.0672	-12.8676	-265.078	47.0114	-33.2809	-273.586	50.2127	-52.412	-228.086	78.6939	17.1709	-236.018	94.6243	44.842	-199.092	90.3904	30.4069	
7	0.0583333	-168.432	79.4584	56.4206	-144.734	65.5768	50.3077	-118.489	59.3909	37.6062	-99.8905	56.7945	38.609	-175.054	62.3615	-32.2439	-170.358	58.0512	-56.9853	-174.614	57.644	-78.1779	-204.875	61.5064	-44.0575	-204.103	56.3437	-66.5215	-204.102	53.8334	-99.4372	-226.407	59.5582	-34.309	-232.941	55.3019	-60.793	-233.741	52.402	-84.0543	-257.299	52.3704	-15.4553	-262.511	48.4907	-30.2679	-274.091	50.7292	-55.1257	-233.076	79.8344	16.5147	-235.271	94.6685	43.1562	-195.631	91.6812	29.6833	
